<svg width="104" height="24" viewBox="0 0 104 24" fill="none" xmlns="http://www.w3.org/2000/svg">
<g clip-path="url(#clip0_11_5687)">
<path d="M14.1211 4.44336C14.9979 4.09254 15.9592 4.00852 16.8838 4.20117C17.8082 4.39388 18.6557 4.85462 19.3193 5.52637L19.3486 5.55664H19.3906C19.7296 5.55426 20.0806 5.59738 20.498 5.53809C20.882 5.48352 21.3278 5.34203 21.915 5.00977C21.6091 6.49447 21.4324 7.16729 20.7646 8.08301L20.7451 8.10938V8.14258C20.7451 11.9414 19.5781 14.7564 17.8262 16.7393C16.0729 18.7234 13.7275 19.8816 11.3623 20.3535C9.7452 20.6761 7.754 20.5731 5.99609 20.2109C5.11794 20.03 4.30096 19.7842 3.62012 19.4971C3.03699 19.2511 2.56006 18.9759 2.22949 18.6885C2.6606 18.6463 3.41195 18.553 4.24414 18.3594C5.24389 18.1267 6.37194 17.749 7.20312 17.1406L7.31934 17.0557L7.19922 16.9766C6.50766 16.5207 4.81165 15.4984 3.73145 13.5166C2.66701 11.5637 2.19288 8.66296 3.91406 4.42578C5.57929 6.34325 7.27273 7.66041 8.99512 8.36719C9.57627 8.60556 9.94226 8.72333 10.2314 8.79102C10.5195 8.85841 10.7322 8.8754 10.9922 8.91113L11.2871 8.95215L11.1074 8.77148C11.1323 7.84188 11.4255 6.93867 11.9541 6.17285C12.4906 5.3958 13.2444 4.79414 14.1211 4.44336ZM15.9053 5.90137C15.119 5.90124 14.3638 6.20994 13.8027 6.76074C13.3119 7.24267 13.0038 7.87627 12.9248 8.55371L12.9053 8.84668L12.877 10.4209C12.8756 10.4914 12.8592 10.5613 12.8291 10.625C12.799 10.6887 12.7556 10.7452 12.7021 10.791C12.6487 10.8368 12.5861 10.8716 12.5186 10.8916C12.4511 10.9115 12.3802 10.9166 12.3105 10.9072L10.749 10.6953C8.71753 10.4183 6.7663 9.48248 4.88965 7.91895L4.75781 7.80859L4.72754 7.97754C4.42573 9.64812 4.56793 11.0709 5.14746 12.3018C5.72674 13.532 6.73875 14.5607 8.15625 15.4521L9.90234 16.5498C9.97145 16.5932 10.0296 16.6529 10.0703 16.7236C10.111 16.7944 10.1339 16.8744 10.1367 16.9561C10.1395 17.0377 10.1217 17.1189 10.0859 17.1924C10.0501 17.2658 9.99667 17.3299 9.93066 17.3779L8.33887 18.541L8.11523 18.7041L8.3916 18.7207C9.34472 18.7801 10.2532 18.738 11.0098 18.5879C13.3887 18.1129 15.375 16.9789 16.7656 15.2207C18.1559 13.4627 18.9453 11.0883 18.9453 8.14258C18.9453 7.99705 18.8715 7.78499 18.7441 7.55762C18.6144 7.32598 18.4211 7.06491 18.167 6.82031C17.6584 6.33085 16.8999 5.90145 15.9053 5.90137Z" fill="black" stroke="white" stroke-width="0.2"/>
</g>
<path d="M57 3H47C45.9391 3 44.9217 3.42143 44.1716 4.17157C43.4214 4.92172 43 5.93913 43 7V17C43 18.0609 43.4214 19.0783 44.1716 19.8284C44.9217 20.5786 45.9391 21 47 21H57C58.0609 21 59.0783 20.5786 59.8284 19.8284C60.5786 19.0783 61 18.0609 61 17V7C61 5.93913 60.5786 4.92172 59.8284 4.17157C59.0783 3.42143 58.0609 3 57 3Z" stroke="black" stroke-width="1.5" stroke-linejoin="round"/>
<path d="M52 16C53.0609 16 54.0783 15.5786 54.8284 14.8284C55.5786 14.0783 56 13.0609 56 12C56 10.9391 55.5786 9.92172 54.8284 9.17157C54.0783 8.42143 53.0609 8 52 8C50.9391 8 49.9217 8.42143 49.1716 9.17157C48.4214 9.92172 48 10.9391 48 12C48 13.0609 48.4214 14.0783 49.1716 14.8284C49.9217 15.5786 50.9391 16 52 16V16Z" stroke="black" stroke-width="1.5" stroke-linejoin="round"/>
<path d="M57.5 7.5C57.7652 7.5 58.0196 7.39464 58.2071 7.20711C58.3946 7.01957 58.5 6.76522 58.5 6.5C58.5 6.23478 58.3946 5.98043 58.2071 5.79289C58.0196 5.60536 57.7652 5.5 57.5 5.5C57.2348 5.5 56.9804 5.60536 56.7929 5.79289C56.6054 5.98043 56.5 6.23478 56.5 6.5C56.5 6.76522 56.6054 7.01957 56.7929 7.20711C56.9804 7.39464 57.2348 7.5 57.5 7.5Z" fill="black"/>
<path d="M91.5 9.05C92.417 8.113 93.611 7.5 95 7.5C96.4587 7.5 97.8576 8.07946 98.8891 9.11091C99.9205 10.1424 100.5 11.5413 100.5 13V20.5H98.5V13C98.5 12.0717 98.1313 11.1815 97.4749 10.5251C96.8185 9.86875 95.9283 9.5 95 9.5C94.0717 9.5 93.1815 9.86875 92.5251 10.5251C91.8687 11.1815 91.5 12.0717 91.5 13V20.5H89.5V8H91.5V9.05ZM84.5 6C84.1022 6 83.7206 5.84196 83.4393 5.56066C83.158 5.27936 83 4.89782 83 4.5C83 4.10218 83.158 3.72064 83.4393 3.43934C83.7206 3.15804 84.1022 3 84.5 3C84.8978 3 85.2794 3.15804 85.5607 3.43934C85.842 3.72064 86 4.10218 86 4.5C86 4.89782 85.842 5.27936 85.5607 5.56066C85.2794 5.84196 84.8978 6 84.5 6ZM83.5 8H85.5V20.5H83.5V8Z" fill="black"/>
<defs>
<clipPath id="clip0_11_5687">
<rect width="24" height="24" fill="white"/>
</clipPath>
</defs>
</svg>
